<?xml version="1.0" encoding="UTF-8"?>
<svg width="98px" height="96px" viewBox="0 0 98 96" version="1.1" xmlns="http://www.w3.org/2000/svg" xmlns:xlink="http://www.w3.org/1999/xlink">
    <title>GitHub-Mark</title>
    <g stroke="none" stroke-width="1" fill="none" fill-rule="evenodd">
        <g fill="#FFFFFF" fill-rule="nonzero">
            <path d="M48.854,0 C21.839,0 0,22 0,49.217 C0,70.973 13.993,89.355 33.405,95.893 C35.842,96.393 36.721,94.83 36.721,93.486 C36.721,92.261 36.641,88.241 36.641,84.154 C23.051,87.111 20.131,78.646 20.131,78.646 C17.938,72.963 14.737,71.479 14.737,71.479 C10.326,68.443 15.055,68.443 15.055,68.443 C19.945,68.763 22.536,73.565 22.536,73.565 C26.887,81.031 33.882,78.887 36.882,77.544 C37.282,74.339 38.562,72.036 39.922,70.73 C29.061,69.504 17.681,65.304 17.681,46.429 C17.681,41.047 19.553,36.714 22.617,33.276 C22.136,32.091 20.464,27.038 23.128,20.31 C23.128,20.31 27.239,19.047 36.641,25.394 C40.563,24.292 44.683,23.742 48.804,23.742 C52.924,23.742 57.044,24.292 60.966,25.394 C70.369,19.047 74.479,20.31 74.479,20.31 C77.143,27.038 75.471,32.091 74.991,33.276 C78.055,36.714 79.926,41.047 79.926,46.429 C79.926,65.304 68.546,69.425 57.685,70.73 C59.525,72.355 61.046,75.439 61.046,80.253 C61.046,87.079 60.966,91.758 60.966,93.486 C60.966,94.83 61.846,96.393 64.282,95.893 C83.694,89.355 97.687,70.973 97.687,49.217 C97.687,22 75.849,0 48.854,0"></path>
        </g>
    </g>
</svg> 