<svg xmlns="http://www.w3.org/2000/svg" viewBox="0 0 100 100" width="100" height="100">
  <defs>
    <radialGradient id="iconBodyGradient" cx="50%" cy="30%" r="60%" fx="50%" fy="30%">
      <stop offset="0%" stop-color="#2d4c5e" />
      <stop offset="70%" stop-color="#152c39" />
      <stop offset="100%" stop-color="#0b1a22" />
    </radialGradient>
    <filter id="iconTexture" x="-50%" y="-50%" width="200%" height="200%">
      <feTurbulence type="fractalNoise" baseFrequency="0.1" numOctaves="3" result="noise" />
      <feDisplacementMap in="SourceGraphic" in2="noise" scale="4" xChannelSelector="R" yChannelSelector="G" />
    </filter>
    <filter id="iconShadow" x="-20%" y="-20%" width="140%" height="140%">
      <feDropShadow dx="2" dy="2" stdDeviation="2" flood-opacity="0.4" flood-color="#000" />
    </filter>
    <filter id="iconGlow" x="-20%" y="-20%" width="140%" height="140%">
      <feGaussianBlur stdDeviation="1" result="blur" />
      <feComposite in="SourceGraphic" in2="blur" operator="over" />
    </filter>
  </defs>
  
  <!-- Cthulhu-inspired head -->
  <g filter="url(#iconShadow)">
    <!-- Main head/body with darker colors -->
    <ellipse cx="50" cy="30" rx="22" ry="25" fill="url(#iconBodyGradient)" opacity="0.95" />
    
    <!-- Texture for an ancient, eldrich look -->
    <ellipse cx="50" cy="30" rx="20" ry="23" fill="none" stroke="#0b1a22" stroke-width="0.5" stroke-opacity="0.4" filter="url(#iconTexture)" />
    
    <!-- Ancient markings/symbols -->
    <path d="M45,20 L55,20 L50,27 Z" fill="#0b1a22" opacity="0.5" />
    <path d="M40,30 L45,37 L35,37 Z" fill="#0b1a22" opacity="0.5" />
    <path d="M60,30 L65,37 L55,37 Z" fill="#0b1a22" opacity="0.5" />
    
    <!-- Eerie, glowing eyes -->
    <ellipse cx="42" cy="28" rx="5" ry="6" fill="#0f2027" />
    <ellipse cx="58" cy="28" rx="5" ry="6" fill="#0f2027" />
    
    <!-- Glowing pupils -->
    <ellipse cx="42" cy="28" rx="3" ry="3.5" fill="#102630" />
    <ellipse cx="58" cy="28" rx="3" ry="3.5" fill="#102630" />
    <ellipse cx="42" cy="28" rx="1.5" ry="1.7" fill="#2aaa8a" filter="url(#iconGlow)" />
    <ellipse cx="58" cy="28" rx="1.5" ry="1.7" fill="#2aaa8a" filter="url(#iconGlow)" />
    
    <!-- Beak/mouth suggestion -->
    <path d="M47,37 L53,37 L50,43 Z" fill="#0b1a22" />
    <path d="M47,43 C47,45 53,45 53,43" fill="none" stroke="#0b1a22" stroke-width="1" />
    
    <!-- Cthulhu-like face tentacles -->
    <path d="M45,40 C42,43 38,45 35,45" fill="none" stroke="#152c39" stroke-width="3" stroke-linecap="round" />
    <path d="M45,40 C42,43 38,45 35,45" fill="none" stroke="#2d4c5e" stroke-width="2" stroke-linecap="round" filter="url(#iconTexture)" />
    
    <path d="M50,40 C50,45 50,48 50,50" fill="none" stroke="#152c39" stroke-width="3" stroke-linecap="round" />
    <path d="M50,40 C50,45 50,48 50,50" fill="none" stroke="#2d4c5e" stroke-width="2" stroke-linecap="round" filter="url(#iconTexture)" />
    
    <path d="M55,40 C58,43 62,45 65,45" fill="none" stroke="#152c39" stroke-width="3" stroke-linecap="round" />
    <path d="M55,40 C58,43 62,45 65,45" fill="none" stroke="#2d4c5e" stroke-width="2" stroke-linecap="round" filter="url(#iconTexture)" />
    
    <!-- Main tentacles, more massive and otherworldly -->
    <path d="M35,45 C30,55 15,65 10,75" fill="none" stroke="#152c39" stroke-width="5" stroke-linecap="round" />
    <path d="M35,45 C30,55 15,65 10,75" fill="none" stroke="#2d4c5e" stroke-width="4" stroke-linecap="round" filter="url(#iconTexture)" />
    <circle cx="30" cy="50" r="1.5" fill="#0f2027" />
    <circle cx="24" cy="58" r="1.5" fill="#0f2027" />
    <circle cx="18" cy="66" r="1.5" fill="#0f2027" />
    
    <path d="M42,50 C40,65 32,80 35,90" fill="none" stroke="#152c39" stroke-width="5" stroke-linecap="round" />
    <path d="M42,50 C40,65 32,80 35,90" fill="none" stroke="#2d4c5e" stroke-width="4" stroke-linecap="round" filter="url(#iconTexture)" />
    <circle cx="41" cy="58" r="1.5" fill="#0f2027" />
    <circle cx="39" cy="68" r="1.5" fill="#0f2027" />
    <circle cx="37" cy="78" r="1.5" fill="#0f2027" />
    
    <path d="M50,52 C50,70 50,85 50,95" fill="none" stroke="#152c39" stroke-width="5.5" stroke-linecap="round" />
    <path d="M50,52 C50,70 50,85 50,95" fill="none" stroke="#2d4c5e" stroke-width="4.5" stroke-linecap="round" filter="url(#iconTexture)" />
    <circle cx="50" cy="62" r="1.5" fill="#0f2027" />
    <circle cx="50" cy="72" r="1.5" fill="#0f2027" />
    <circle cx="50" cy="82" r="1.5" fill="#0f2027" />
    
    <path d="M58,50 C60,65 68,80 65,90" fill="none" stroke="#152c39" stroke-width="5" stroke-linecap="round" />
    <path d="M58,50 C60,65 68,80 65,90" fill="none" stroke="#2d4c5e" stroke-width="4" stroke-linecap="round" filter="url(#iconTexture)" />
    <circle cx="59" cy="58" r="1.5" fill="#0f2027" />
    <circle cx="61" cy="68" r="1.5" fill="#0f2027" />
    <circle cx="63" cy="78" r="1.5" fill="#0f2027" />
    
    <path d="M65,45 C70,55 85,65 90,75" fill="none" stroke="#152c39" stroke-width="5" stroke-linecap="round" />
    <path d="M65,45 C70,55 85,65 90,75" fill="none" stroke="#2d4c5e" stroke-width="4" stroke-linecap="round" filter="url(#iconTexture)" />
    <circle cx="70" cy="50" r="1.5" fill="#0f2027" />
    <circle cx="76" cy="58" r="1.5" fill="#0f2027" />
    <circle cx="82" cy="66" r="1.5" fill="#0f2027" />
    
    <!-- Cthulhu-like head appendages/wings -->
    <path d="M35,20 C30,12 20,8 12,15" fill="none" stroke="#152c39" stroke-width="4" stroke-linecap="round" />
    <path d="M35,20 C30,12 20,8 12,15" fill="none" stroke="#2d4c5e" stroke-width="3" stroke-linecap="round" filter="url(#iconTexture)" />
    <circle cx="28" cy="15" r="1" fill="#0f2027" />
    <circle cx="20" cy="12" r="1" fill="#0f2027" />
    
    <path d="M65,20 C70,12 80,8 88,15" fill="none" stroke="#152c39" stroke-width="4" stroke-linecap="round" />
    <path d="M65,20 C70,12 80,8 88,15" fill="none" stroke="#2d4c5e" stroke-width="3" stroke-linecap="round" filter="url(#iconTexture)" />
    <circle cx="72" cy="15" r="1" fill="#0f2027" />
    <circle cx="80" cy="12" r="1" fill="#0f2027" />
    
    <!-- Extra small dragon-like wings -->
    <path d="M40,15 C30,5 15,5 8,12" fill="none" stroke="#152c39" stroke-width="3" stroke-linecap="round" />
    <path d="M40,15 C30,5 15,5 8,12" fill="none" stroke="#2d4c5e" stroke-width="2" stroke-linecap="round" filter="url(#iconTexture)" />
    
    <path d="M60,15 C70,5 85,5 92,12" fill="none" stroke="#152c39" stroke-width="3" stroke-linecap="round" />
    <path d="M60,15 C70,5 85,5 92,12" fill="none" stroke="#2d4c5e" stroke-width="2" stroke-linecap="round" filter="url(#iconTexture)" />
  </g>
</svg> 