<svg xmlns="http://www.w3.org/2000/svg" viewBox="0 0 240 240" width="240" height="240">
  <defs>
    <radialGradient id="bodyGradient" cx="50%" cy="40%" r="60%" fx="50%" fy="40%">
      <stop offset="0%" stop-color="#2d4c5e" />
      <stop offset="70%" stop-color="#152c39" />
      <stop offset="100%" stop-color="#0b1a22" />
    </radialGradient>
    <filter id="texture" x="-50%" y="-50%" width="200%" height="200%">
      <feTurbulence type="fractalNoise" baseFrequency="0.05" numOctaves="3" result="noise" />
      <feDisplacementMap in="SourceGraphic" in2="noise" scale="8" xChannelSelector="R" yChannelSelector="G" />
    </filter>
    <filter id="shadow" x="-20%" y="-20%" width="140%" height="140%">
      <feDropShadow dx="3" dy="3" stdDeviation="4" flood-opacity="0.4" flood-color="#000" />
    </filter>
    <filter id="glow" x="-20%" y="-20%" width="140%" height="140%">
      <feGaussianBlur stdDeviation="2" result="blur" />
      <feComposite in="SourceGraphic" in2="blur" operator="over" />
    </filter>
  </defs>
  
  <!-- Cthulhu-inspired octopus body -->
  <g filter="url(#shadow)">
    <!-- Main body with darker, more ominous colors -->
    <ellipse cx="120" cy="80" rx="55" ry="65" fill="url(#bodyGradient)" opacity="0.95" />
    
    <!-- Body texture, more rough and ancient looking -->
    <ellipse cx="120" cy="80" rx="53" ry="63" fill="none" stroke="#0b1a22" stroke-width="0.8" stroke-opacity="0.5" filter="url(#texture)" />
    
    <!-- Darker patches suggesting ancient markings -->
    <ellipse cx="135" cy="65" rx="18" ry="12" fill="#0b1a22" opacity="0.3" />
    <ellipse cx="105" cy="70" rx="16" ry="10" fill="#0b1a22" opacity="0.3" />
    <ellipse cx="125" cy="95" rx="20" ry="15" fill="#0b1a22" opacity="0.3" />
    
    <!-- Ancient runes/markings -->
    <path d="M110,60 L130,60 L120,70 Z" fill="#0b1a22" opacity="0.4" />
    <path d="M100,85 L110,95 L90,95 Z" fill="#0b1a22" opacity="0.4" />
    <path d="M140,85 L150,95 L130,95 Z" fill="#0b1a22" opacity="0.4" />
    
    <!-- Glowing eyes -->
    <ellipse cx="100" cy="70" rx="10" ry="12" fill="#0f2027" />
    <ellipse cx="140" cy="70" rx="10" ry="12" fill="#0f2027" />
    
    <!-- Pupils with eerie glow -->
    <ellipse cx="100" cy="70" rx="6" ry="7" fill="#102630" />
    <ellipse cx="140" cy="70" rx="6" ry="7" fill="#102630" />
    <ellipse cx="100" cy="70" rx="3" ry="3.5" fill="#2aaa8a" filter="url(#glow)" />
    <ellipse cx="140" cy="70" rx="3" ry="3.5" fill="#2aaa8a" filter="url(#glow)" />
    
    <!-- Beak/mouth suggesting the Elder God aspect -->
    <path d="M115,90 L125,90 L120,100 Z" fill="#0b1a22" />
    <path d="M115,100 C115,105 125,105 125,100" fill="none" stroke="#0b1a22" stroke-width="1.5" />
    
    <!-- More numerous, gnarly tentacles -->
    <path d="M75,105 C65,140 30,160 15,190" fill="none" stroke="#152c39" stroke-width="10" stroke-linecap="round" />
    <path d="M75,105 C65,140 30,160 15,190" fill="none" stroke="#2d4c5e" stroke-width="8" stroke-linecap="round" filter="url(#texture)" />
    
    <!-- More sinister suction cups, almost like teeth -->
    <circle cx="70" cy="115" r="3" fill="#0f2027" />
    <circle cx="62" cy="130" r="3" fill="#0f2027" />
    <circle cx="50" cy="145" r="3" fill="#0f2027" />
    <circle cx="40" cy="160" r="3" fill="#0f2027" />
    <circle cx="30" cy="175" r="3" fill="#0f2027" />
    
    <path d="M90,110 C85,150 55,180 40,210" fill="none" stroke="#152c39" stroke-width="11" stroke-linecap="round" />
    <path d="M90,110 C85,150 55,180 40,210" fill="none" stroke="#2d4c5e" stroke-width="9" stroke-linecap="round" filter="url(#texture)" />
    <circle cx="85" cy="125" r="3" fill="#0f2027" />
    <circle cx="78" cy="145" r="3" fill="#0f2027" />
    <circle cx="67" cy="165" r="3" fill="#0f2027" />
    <circle cx="55" cy="185" r="3" fill="#0f2027" />
    
    <path d="M105,115 C105,160 95,200 110,220" fill="none" stroke="#152c39" stroke-width="12" stroke-linecap="round" />
    <path d="M105,115 C105,160 95,200 110,220" fill="none" stroke="#2d4c5e" stroke-width="10" stroke-linecap="round" filter="url(#texture)" />
    <circle cx="105" cy="135" r="3.5" fill="#0f2027" />
    <circle cx="103" cy="155" r="3.5" fill="#0f2027" />
    <circle cx="100" cy="175" r="3.5" fill="#0f2027" />
    <circle cx="102" cy="195" r="3.5" fill="#0f2027" />
    
    <path d="M120,115 C120,160 120,200 120,225" fill="none" stroke="#152c39" stroke-width="12" stroke-linecap="round" />
    <path d="M120,115 C120,160 120,200 120,225" fill="none" stroke="#2d4c5e" stroke-width="10" stroke-linecap="round" filter="url(#texture)" />
    <circle cx="120" cy="135" r="3.5" fill="#0f2027" />
    <circle cx="120" cy="155" r="3.5" fill="#0f2027" />
    <circle cx="120" cy="175" r="3.5" fill="#0f2027" />
    <circle cx="120" cy="195" r="3.5" fill="#0f2027" />
    
    <path d="M135,115 C135,160 145,200 130,220" fill="none" stroke="#152c39" stroke-width="12" stroke-linecap="round" />
    <path d="M135,115 C135,160 145,200 130,220" fill="none" stroke="#2d4c5e" stroke-width="10" stroke-linecap="round" filter="url(#texture)" />
    <circle cx="135" cy="135" r="3.5" fill="#0f2027" />
    <circle cx="137" cy="155" r="3.5" fill="#0f2027" />
    <circle cx="140" cy="175" r="3.5" fill="#0f2027" />
    <circle cx="138" cy="195" r="3.5" fill="#0f2027" />
    
    <path d="M150,110 C155,150 175,180 180,210" fill="none" stroke="#152c39" stroke-width="11" stroke-linecap="round" />
    <path d="M150,110 C155,150 175,180 180,210" fill="none" stroke="#2d4c5e" stroke-width="9" stroke-linecap="round" filter="url(#texture)" />
    <circle cx="152" cy="125" r="3" fill="#0f2027" />
    <circle cx="156" cy="145" r="3" fill="#0f2027" />
    <circle cx="165" cy="165" r="3" fill="#0f2027" />
    <circle cx="175" cy="185" r="3" fill="#0f2027" />
    
    <path d="M165,105 C175,140 195,160 205,190" fill="none" stroke="#152c39" stroke-width="10" stroke-linecap="round" />
    <path d="M165,105 C175,140 195,160 205,190" fill="none" stroke="#2d4c5e" stroke-width="8" stroke-linecap="round" filter="url(#texture)" />
    <circle cx="170" cy="115" r="3" fill="#0f2027" />
    <circle cx="178" cy="130" r="3" fill="#0f2027" />
    <circle cx="185" cy="145" r="3" fill="#0f2027" />
    <circle cx="192" cy="160" r="3" fill="#0f2027" />
    <circle cx="200" cy="175" r="3" fill="#0f2027" />
    
    <!-- Additional facial tentacles, like Cthulhu's face/beard tentacles -->
    <path d="M108,95 C105,100 100,105 95,105" fill="none" stroke="#152c39" stroke-width="5" stroke-linecap="round" />
    <path d="M108,95 C105,100 100,105 95,105" fill="none" stroke="#2d4c5e" stroke-width="3" stroke-linecap="round" filter="url(#texture)" />
    
    <path d="M114,95 C112,102 110,110 112,115" fill="none" stroke="#152c39" stroke-width="5" stroke-linecap="round" />
    <path d="M114,95 C112,102 110,110 112,115" fill="none" stroke="#2d4c5e" stroke-width="3" stroke-linecap="round" filter="url(#texture)" />
    
    <path d="M126,95 C128,102 130,110 128,115" fill="none" stroke="#152c39" stroke-width="5" stroke-linecap="round" />
    <path d="M126,95 C128,102 130,110 128,115" fill="none" stroke="#2d4c5e" stroke-width="3" stroke-linecap="round" filter="url(#texture)" />
    
    <path d="M132,95 C135,100 140,105 145,105" fill="none" stroke="#152c39" stroke-width="5" stroke-linecap="round" />
    <path d="M132,95 C135,100 140,105 145,105" fill="none" stroke="#2d4c5e" stroke-width="3" stroke-linecap="round" filter="url(#texture)" />
    
    <!-- Cthulhu-like head appendages/wings -->
    <path d="M85,55 C65,30 35,25 15,35" fill="none" stroke="#152c39" stroke-width="8" stroke-linecap="round" />
    <path d="M85,55 C65,30 35,25 15,35" fill="none" stroke="#2d4c5e" stroke-width="6" stroke-linecap="round" filter="url(#texture)" />
    <circle cx="75" cy="45" r="2.5" fill="#0f2027" />
    <circle cx="60" cy="35" r="2.5" fill="#0f2027" />
    <circle cx="45" cy="30" r="2.5" fill="#0f2027" />
    <circle cx="30" cy="32" r="2.5" fill="#0f2027" />
    
    <path d="M155,55 C175,30 205,25 225,35" fill="none" stroke="#152c39" stroke-width="8" stroke-linecap="round" />
    <path d="M155,55 C175,30 205,25 225,35" fill="none" stroke="#2d4c5e" stroke-width="6" stroke-linecap="round" filter="url(#texture)" />
    <circle cx="165" cy="45" r="2.5" fill="#0f2027" />
    <circle cx="180" cy="35" r="2.5" fill="#0f2027" />
    <circle cx="195" cy="30" r="2.5" fill="#0f2027" />
    <circle cx="210" cy="32" r="2.5" fill="#0f2027" />
    
    <!-- Ancient, dragon-like wings/appendages -->
    <path d="M95,50 C70,15 40,10 20,30" fill="none" stroke="#152c39" stroke-width="6" stroke-linecap="round" />
    <path d="M95,50 C70,15 40,10 20,30" fill="none" stroke="#2d4c5e" stroke-width="4" stroke-linecap="round" filter="url(#texture)" />
    
    <path d="M145,50 C170,15 200,10 220,30" fill="none" stroke="#152c39" stroke-width="6" stroke-linecap="round" />
    <path d="M145,50 C170,15 200,10 220,30" fill="none" stroke="#2d4c5e" stroke-width="4" stroke-linecap="round" filter="url(#texture)" />
  </g>
</svg> 